<svg width="116" height="72" viewBox="0 0 116 72" fill="none" xmlns="http://www.w3.org/2000/svg">
  <path d="M19.5211 24.7947C23.3434 18.3766 30.4611 14 39.2512 14C52.6238 14 61.9841 24.033 61.9841 35.9994C61.9841 47.9067 52.6238 58 39.2512 58C30.5824 58 23.5403 53.7168 19.6812 47.4422L46.8084 45.6378V44.9625L17.6149 43.0313C16.8645 40.8113 16.4583 38.4455 16.4583 35.9994C16.4583 33.3406 16.9284 30.7783 17.8033 28.3987L31.6333 26.8473V26.1722L19.5211 24.7947Z" fill="#F07800"/>
  <path d="M81.1428 26.0273L62.5432 47.967V57.1537H99.9065V45.9727H80.3963L98.9348 23.973V14.8463H63.5591V26.0273H81.1428Z" fill="#F07800"/>
  </svg>
  